<?xml version="1.0" standalone="no"?>
<!DOCTYPE svg PUBLIC "-//W3C//DTD SVG 20010904//EN"
 "http://www.w3.org/TR/2001/REC-SVG-20010904/DTD/svg10.dtd">
<svg version="1.0" xmlns="http://www.w3.org/2000/svg"
 width="24.000000pt" height="24.000000pt" viewBox="0 0 24.000000 24.000000"
 preserveAspectRatio="xMidYMid meet">

<g transform="translate(0.000000,24.000000) scale(0.100000,-0.100000)"
fill="#000000" stroke="none">
<path d="M1 120 l0 -120 119 0 119 0 0 120 0 120 -119 0 -119 0 0 -120z m178
56 c15 -8 34 -22 41 -32 8 -9 -3 -5 -24 10 -50 34 -101 34 -150 1 -21 -14 -34
-20 -31 -14 14 22 71 49 103 49 18 0 45 -6 61 -14z m-81 -30 c-7 -8 -15 -12
-17 -11 -5 6 10 25 20 25 5 0 4 -6 -3 -14z m57 3 c11 -16 1 -19 -13 -3 -7 8
-8 14 -3 14 5 0 13 -5 16 -11z m-35 -89 c24 0 51 10 76 26 21 15 32 19 24 10
-48 -59 -152 -59 -200 0 -8 9 3 5 24 -10 25 -16 52 -26 76 -26z m-15 21 c-6
-5 -25 10 -25 20 0 5 6 4 14 -3 8 -7 12 -15 11 -17z m50 10 c-3 -6 -11 -11
-16 -11 -5 0 -4 6 3 14 14 16 24 13 13 -3z"/>
</g>
</svg>
