<?xml version="1.0" standalone="no"?>
<!DOCTYPE svg PUBLIC "-//W3C//DTD SVG 20010904//EN"
 "http://www.w3.org/TR/2001/REC-SVG-20010904/DTD/svg10.dtd">
<svg version="1.0" xmlns="http://www.w3.org/2000/svg"
 width="24.000000pt" height="24.000000pt" viewBox="0 0 24.000000 24.000000"
 preserveAspectRatio="xMidYMid meet">

<g transform="translate(0.000000,24.000000) scale(0.100000,-0.100000)"
fill="#000000" stroke="none">
<path d="M1 120 l-1 -120 120 0 120 0 -1 120 0 120 -106 0 c-103 0 -106 -1
-89 -19 13 -14 27 -17 64 -14 38 4 54 0 81 -19 19 -12 36 -30 38 -38 3 -10 1
-9 -7 3 -6 9 -24 24 -40 32 -30 15 -100 21 -100 8 1 -5 23 -30 50 -58 l49 -49
25 24 c15 13 26 21 26 17 0 -3 -10 -15 -22 -26 -21 -20 -21 -21 -2 -43 l19
-23 -21 17 c-11 10 -26 18 -32 18 -7 0 -11 6 -9 13 1 7 -6 11 -17 9 -11 -2
-15 1 -11 8 7 11 -31 60 -46 60 -4 0 -10 -8 -12 -17 -2 -10 -3 -6 -1 9 5 38
-11 43 -41 14 -31 -31 -34 -21 -3 11 21 22 21 23 3 43 -10 11 -22 20 -26 20
-4 0 -8 -54 -8 -120z m168 16 c-1 -20 -2 -20 -6 -1 -3 11 -10 27 -17 35 -10
13 -9 13 7 1 9 -7 16 -23 16 -35z m-95 -64 c-5 -6 -53 32 -59 47 -3 7 10 0 28
-15 19 -16 33 -31 31 -32z m31 20 c-3 -3 -11 0 -18 7 -9 10 -8 11 6 5 10 -3
15 -9 12 -12z m33 -29 c-10 -2 -26 -2 -35 0 -10 3 -2 5 17 5 19 0 27 -2 18 -5z"/>
</g>
</svg>
